<?xml version="1.0" encoding="utf-8"?>
<!-- Generator: Adobe Illustrator 24.2.1, SVG Export Plug-In . SVG Version: 6.00 Build 0)  -->
<svg version="1.1" xmlns="http://www.w3.org/2000/svg" xmlns:xlink="http://www.w3.org/1999/xlink" x="0px" y="0px"
	 viewBox="0 0 500 500" style="enable-background:new 0 0 500 500;" xml:space="preserve">
<style type="text/css">
	.st0{clip-path:url(#SVGID_2_);fill:url(#SVGID_3_);}
	.st1{fill:#FFFFFF;stroke:#FFFFFF;stroke-miterlimit:10;}
	.st2{fill:#009929;}
	.st3{fill:#545759;}
	.st4{fill:url(#SVGID_4_);}
	.st5{filter:url(#Adobe_OpacityMaskFilter);}
	.st6{fill:#FFFFFF;}
	.st7{font-family:'Metropolis-ExtraBoldItalic';}
	.st8{font-size:45.048px;}
	.st9{mask:url(#SVGID_5_);fill:url(#SVGID_6_);}
	.st10{fill:#EEEEEE;}
	.st11{filter:url(#Adobe_OpacityMaskFilter_1_);}
	.st12{mask:url(#SVGID_7_);fill:url(#SVGID_8_);}
</style>
<g id="BACKGROUND">
	<g>
		<defs>
			<rect id="SVGID_1_" width="500" height="500"/>
		</defs>
		<clipPath id="SVGID_2_">
			<use xlink:href="#SVGID_1_"  style="overflow:visible;"/>
		</clipPath>
		<radialGradient id="SVGID_3_" cx="251" cy="252.5" r="292.7501" gradientUnits="userSpaceOnUse">
			<stop  offset="0.6967" style="stop-color:#FFFFFF"/>
			<stop  offset="0.8659" style="stop-color:#F8F7F6"/>
			<stop  offset="1" style="stop-color:#F0EDEC"/>
		</radialGradient>
		<rect x="-42" y="-40" class="st0" width="586" height="585"/>
	</g>
</g>
<g id="OBJECTS">
	<rect x="81.6" y="78.79" class="st1" width="313.92" height="138.1"/>
	<g>
		<path class="st2" d="M144.02,141.4l-2.41,8.8h-13.49l-0.61,2.2h11.25l-2.41,8.8H125.1l-0.61,2.2h13.49l-2.41,8.8h-22.49
			l8.43-30.79H144.02z"/>
		<path class="st2" d="M149.37,161.2c-7.5,0-10.33-3.33-8.5-9.99c1.78-6.54,6.42-9.81,13.92-9.81h14.62l-2.41,8.8h-14.62
			c-1.5,0-2.34,0.34-2.52,1.01c-0.22,0.79,0.41,1.19,1.91,1.19h6.75c7.5,0,10.35,3.27,8.57,9.81c-1.83,6.66-6.49,9.99-13.99,9.99
			h-14.62l2.41-8.8h14.62c1.5,0,2.36-0.4,2.59-1.19c0.18-0.67-0.48-1.01-1.98-1.01H149.37z"/>
		<path d="M185.64,141.4c4.35,0,7.65,1.5,9.9,4.51c2.25,3.01,2.8,6.64,1.64,10.89c-1.17,4.25-3.7,7.88-7.6,10.89
			s-8.02,4.51-12.37,4.51h-12.37l8.43-30.79H185.64z M176.24,163.4h3.37c1.86,0,3.62-0.64,5.3-1.94c1.67-1.29,2.76-2.84,3.27-4.66
			c0.49-1.82,0.26-3.37-0.71-4.66c-0.97-1.29-2.38-1.94-4.24-1.94h-3.37L176.24,163.4z"/>
		<path d="M224.39,141.4l-2.41,8.8h-13.49l-0.61,2.2h11.25l-2.41,8.8h-11.25l-0.61,2.2h13.49l-2.41,8.8h-22.49l8.43-30.79H224.39z"
			/>
		<path d="M229.11,163.4l-2.41,8.8h-9l8.43-30.79h15.74c7.5,0,10.24,3.67,8.23,11c-2.01,7.33-6.76,11-14.26,11H229.11z
			 M232.73,150.2l-1.21,4.4h6.75c1.5,0,2.45-0.73,2.86-2.2c0.4-1.47-0.14-2.2-1.64-2.2H232.73z"/>
		<path d="M260.34,172.2c-4.35,0-7.65-1.5-9.9-4.51s-2.79-6.64-1.62-10.89c1.15-4.25,3.68-7.88,7.58-10.89
			c3.9-3.01,8.02-4.51,12.37-4.51c4.35,0,7.65,1.5,9.9,4.51s2.8,6.64,1.64,10.89c-1.17,4.25-3.7,7.88-7.6,10.89
			S264.69,172.2,260.34,172.2z M268.04,161.46c1.67-1.29,2.76-2.84,3.27-4.66c0.5-1.82,0.26-3.37-0.71-4.66
			c-0.97-1.29-2.38-1.94-4.24-1.94s-3.63,0.65-5.3,1.94c-1.67,1.29-2.75,2.84-3.25,4.66c-0.51,1.82-0.28,3.37,0.69,4.66
			c0.97,1.29,2.38,1.94,4.24,1.94S266.37,162.75,268.04,161.46z"/>
		<path d="M288,163.4l-2.41,8.8h-9l8.43-30.79h15.74c7.5,0,10.24,3.67,8.23,11c-1.6,5.87-4.96,9.39-10.08,10.56l6.9,9.24h-11.25
			L288,163.4z M291.62,150.2l-1.21,4.4h6.75c1.5,0,2.45-0.73,2.86-2.2c0.41-1.47-0.14-2.2-1.64-2.2H291.62z"/>
		<path d="M319.95,172.2h-9l6.03-22h-7.87l2.41-8.8h24.74l-2.41,8.8h-7.87L319.95,172.2z"/>
		<path d="M359.89,141.4l-2.41,8.8h-13.49l-0.61,2.2h11.25l-2.41,8.8h-11.25l-0.61,2.2h13.49l-2.41,8.8h-22.49l8.43-30.79H359.89z"
			/>
	</g>
	<g>
		<path class="st3" d="M111.12,194.43h-4.29v-8.91h4.12v1.63h-2.51v1.98h2.34v1.63h-2.34v2.04h2.68V194.43z"/>
		<path class="st3" d="M112.45,194.09v-1.99c0.29,0.3,0.6,0.53,0.94,0.68c0.34,0.15,0.68,0.23,1.03,0.23c0.2,0,0.38-0.02,0.53-0.07
			c0.15-0.04,0.28-0.11,0.38-0.19c0.1-0.08,0.18-0.18,0.23-0.29c0.05-0.11,0.07-0.23,0.07-0.36c0-0.17-0.04-0.33-0.12-0.47
			c-0.08-0.14-0.19-0.26-0.33-0.38c-0.14-0.12-0.3-0.23-0.49-0.34c-0.19-0.11-0.39-0.22-0.61-0.33c-0.56-0.29-0.97-0.64-1.25-1.06
			c-0.27-0.42-0.41-0.92-0.41-1.52c0-0.46,0.07-0.86,0.22-1.2c0.15-0.33,0.35-0.61,0.61-0.82c0.26-0.22,0.56-0.37,0.89-0.48
			c0.34-0.1,0.7-0.15,1.08-0.15c0.37,0,0.7,0.03,0.99,0.08c0.29,0.06,0.55,0.14,0.8,0.26v1.86c-0.12-0.1-0.25-0.19-0.39-0.27
			c-0.14-0.08-0.29-0.14-0.44-0.2s-0.3-0.09-0.45-0.12c-0.15-0.03-0.29-0.04-0.42-0.04c-0.18,0-0.35,0.02-0.5,0.06
			c-0.15,0.04-0.28,0.11-0.38,0.18c-0.1,0.08-0.18,0.17-0.24,0.28c-0.06,0.11-0.08,0.23-0.08,0.37c0,0.15,0.03,0.28,0.09,0.4
			c0.06,0.12,0.15,0.23,0.27,0.34s0.26,0.21,0.42,0.31s0.35,0.21,0.56,0.31c0.29,0.15,0.54,0.31,0.77,0.48
			c0.23,0.17,0.42,0.36,0.59,0.57c0.16,0.21,0.29,0.45,0.37,0.72s0.13,0.59,0.13,0.95c0,0.5-0.08,0.92-0.23,1.25
			c-0.15,0.34-0.36,0.61-0.62,0.82c-0.26,0.21-0.56,0.36-0.9,0.45c-0.34,0.09-0.71,0.14-1.09,0.14c-0.39,0-0.77-0.04-1.12-0.12
			S112.71,194.26,112.45,194.09z"/>
		<path class="st3" d="M124.14,194.12c-0.52,0.32-1.2,0.47-2.04,0.47c-1.1,0-1.96-0.4-2.59-1.21c-0.63-0.8-0.94-1.88-0.94-3.21
			c0-1.43,0.35-2.58,1.06-3.47c0.71-0.89,1.62-1.33,2.75-1.33c0.7,0,1.29,0.11,1.77,0.33v1.93c-0.48-0.36-1.02-0.54-1.64-0.54
			c-0.67,0-1.21,0.26-1.63,0.79s-0.62,1.24-0.62,2.14c0,0.86,0.19,1.55,0.58,2.06c0.39,0.51,0.91,0.77,1.57,0.77
			c0.63,0,1.2-0.19,1.73-0.57V194.12z"/>
		<path class="st3" d="M131.72,190.57c0,2.68-1,4.02-3,4.02c-1.94,0-2.91-1.31-2.91-3.92v-5.15h1.62v5.17
			c0,1.44,0.45,2.16,1.36,2.16c0.89,0,1.33-0.7,1.33-2.09v-5.25h1.61V190.57z"/>
		<path class="st3" d="M138.08,194.43h-4.29v-8.91h4.12v1.63h-2.51v1.98h2.34v1.63h-2.34v2.04h2.68V194.43z"/>
		<path class="st3" d="M143.99,194.43h-4.26v-8.91h1.61v7.28h2.65V194.43z"/>
		<path class="st3" d="M151.75,194.43H150l-0.51-1.98h-2.54l-0.5,1.98h-1.75l2.6-8.91h1.91L151.75,194.43z M149.12,190.91l-0.77-3
			c-0.06-0.22-0.1-0.49-0.12-0.8h-0.04c-0.02,0.26-0.06,0.52-0.12,0.78l-0.78,3.02H149.12z"/>
		<path class="st3" d="M156.48,194.43v-8.91h2.53c2.54,0,3.81,1.45,3.81,4.34c0,1.39-0.35,2.5-1.04,3.33s-1.62,1.24-2.77,1.24
			H156.48z M158.09,187.15v5.65h0.8c0.7,0,1.25-0.26,1.64-0.78c0.4-0.52,0.6-1.23,0.6-2.13c0-0.85-0.2-1.52-0.59-2
			c-0.39-0.49-0.95-0.73-1.66-0.73H158.09z"/>
		<path class="st3" d="M168.81,194.43h-4.29v-8.91h4.12v1.63h-2.51v1.98h2.34v1.63h-2.34v2.04h2.68V194.43z"/>
		<path class="st3" d="M178.08,194.43h-4.29v-8.91h4.12v1.63h-2.51v1.98h2.34v1.63h-2.34v2.04h2.68V194.43z"/>
		<path class="st3" d="M179.41,194.09v-1.99c0.29,0.3,0.6,0.53,0.94,0.68c0.34,0.15,0.68,0.23,1.03,0.23c0.2,0,0.38-0.02,0.53-0.07
			c0.15-0.04,0.28-0.11,0.38-0.19c0.1-0.08,0.18-0.18,0.23-0.29c0.05-0.11,0.07-0.23,0.07-0.36c0-0.17-0.04-0.33-0.12-0.47
			c-0.08-0.14-0.19-0.26-0.33-0.38c-0.14-0.12-0.3-0.23-0.49-0.34c-0.19-0.11-0.39-0.22-0.61-0.33c-0.56-0.29-0.97-0.64-1.25-1.06
			c-0.27-0.42-0.41-0.92-0.41-1.52c0-0.46,0.07-0.86,0.22-1.2c0.15-0.33,0.35-0.61,0.61-0.82c0.26-0.22,0.56-0.37,0.89-0.48
			c0.34-0.1,0.7-0.15,1.08-0.15c0.37,0,0.7,0.03,0.99,0.08c0.29,0.06,0.55,0.14,0.8,0.26v1.86c-0.12-0.1-0.25-0.19-0.39-0.27
			c-0.14-0.08-0.29-0.14-0.44-0.2s-0.3-0.09-0.45-0.12c-0.15-0.03-0.29-0.04-0.42-0.04c-0.18,0-0.35,0.02-0.5,0.06
			c-0.15,0.04-0.28,0.11-0.38,0.18c-0.1,0.08-0.18,0.17-0.24,0.28c-0.06,0.11-0.08,0.23-0.08,0.37c0,0.15,0.03,0.28,0.09,0.4
			c0.06,0.12,0.15,0.23,0.27,0.34s0.26,0.21,0.42,0.31s0.35,0.21,0.56,0.31c0.29,0.15,0.54,0.31,0.77,0.48
			c0.23,0.17,0.42,0.36,0.59,0.57c0.16,0.21,0.29,0.45,0.37,0.72s0.13,0.59,0.13,0.95c0,0.5-0.08,0.92-0.23,1.25
			c-0.15,0.34-0.36,0.61-0.62,0.82c-0.26,0.21-0.56,0.36-0.9,0.45c-0.34,0.09-0.71,0.14-1.09,0.14c-0.39,0-0.77-0.04-1.12-0.12
			S179.67,194.26,179.41,194.09z"/>
		<path class="st3" d="M190.99,187.15h-2.04v7.28h-1.62v-7.28h-2.03v-1.63h5.68V187.15z"/>
		<path class="st3" d="M198.29,190.57c0,2.68-1,4.02-3,4.02c-1.94,0-2.91-1.31-2.91-3.92v-5.15h1.62v5.17
			c0,1.44,0.45,2.16,1.36,2.16c0.89,0,1.33-0.7,1.33-2.09v-5.25h1.61V190.57z"/>
		<path class="st3" d="M200.36,194.43v-8.91h2.53c2.54,0,3.81,1.45,3.81,4.34c0,1.39-0.35,2.5-1.04,3.33s-1.62,1.24-2.77,1.24
			H200.36z M201.97,187.15v5.65h0.8c0.7,0,1.25-0.26,1.64-0.78c0.4-0.52,0.6-1.23,0.6-2.13c0-0.85-0.2-1.52-0.59-2
			c-0.39-0.49-0.95-0.73-1.66-0.73H201.97z"/>
		<path class="st3" d="M210.6,185.52v1.55h-0.6v5.81h0.6v1.55h-2.81v-1.55h0.6v-5.81h-0.6v-1.55H210.6z"/>
		<path class="st3" d="M215.16,194.59c-1.02,0-1.86-0.42-2.5-1.25c-0.64-0.83-0.97-1.91-0.97-3.25c0-1.41,0.33-2.55,0.98-3.42
			s1.52-1.31,2.6-1.31c1.02,0,1.85,0.42,2.48,1.25s0.94,1.93,0.94,3.29c0,1.4-0.33,2.53-0.98,3.39
			C217.06,194.16,216.21,194.59,215.16,194.59z M215.23,187.1c-0.56,0-1.01,0.26-1.35,0.79s-0.5,1.23-0.5,2.1
			c0,0.88,0.17,1.58,0.5,2.09s0.77,0.77,1.31,0.77c0.56,0,1-0.25,1.32-0.75c0.33-0.5,0.49-1.19,0.49-2.08
			c0-0.92-0.16-1.64-0.47-2.16C216.21,187.36,215.78,187.1,215.23,187.1z"/>
		<path class="st3" d="M220.07,194.09v-1.99c0.29,0.3,0.6,0.53,0.94,0.68c0.34,0.15,0.68,0.23,1.03,0.23c0.2,0,0.38-0.02,0.53-0.07
			c0.15-0.04,0.28-0.11,0.38-0.19c0.1-0.08,0.18-0.18,0.23-0.29c0.05-0.11,0.07-0.23,0.07-0.36c0-0.17-0.04-0.33-0.12-0.47
			c-0.08-0.14-0.19-0.26-0.33-0.38c-0.14-0.12-0.3-0.23-0.49-0.34c-0.19-0.11-0.39-0.22-0.61-0.33c-0.56-0.29-0.97-0.64-1.25-1.06
			c-0.27-0.42-0.41-0.92-0.41-1.52c0-0.46,0.07-0.86,0.22-1.2c0.15-0.33,0.35-0.61,0.61-0.82c0.26-0.22,0.56-0.37,0.89-0.48
			c0.34-0.1,0.7-0.15,1.08-0.15c0.37,0,0.7,0.03,0.99,0.08c0.29,0.06,0.55,0.14,0.8,0.26v1.86c-0.12-0.1-0.25-0.19-0.39-0.27
			c-0.14-0.08-0.29-0.14-0.44-0.2s-0.3-0.09-0.45-0.12c-0.15-0.03-0.29-0.04-0.42-0.04c-0.18,0-0.35,0.02-0.5,0.06
			c-0.15,0.04-0.28,0.11-0.38,0.18c-0.1,0.08-0.18,0.17-0.24,0.28c-0.06,0.11-0.08,0.23-0.08,0.37c0,0.15,0.03,0.28,0.09,0.4
			c0.06,0.12,0.15,0.23,0.27,0.34s0.26,0.21,0.42,0.31s0.35,0.21,0.56,0.31c0.29,0.15,0.54,0.31,0.77,0.48
			c0.23,0.17,0.42,0.36,0.59,0.57c0.16,0.21,0.29,0.45,0.37,0.72s0.13,0.59,0.13,0.95c0,0.5-0.08,0.92-0.23,1.25
			c-0.15,0.34-0.36,0.61-0.62,0.82c-0.26,0.21-0.56,0.36-0.9,0.45c-0.34,0.09-0.71,0.14-1.09,0.14c-0.39,0-0.77-0.04-1.12-0.12
			S220.33,194.26,220.07,194.09z"/>
		<path class="st3" d="M229.63,194.09v-1.99c0.29,0.3,0.6,0.53,0.94,0.68c0.34,0.15,0.68,0.23,1.03,0.23c0.2,0,0.38-0.02,0.53-0.07
			c0.15-0.04,0.28-0.11,0.38-0.19c0.1-0.08,0.18-0.18,0.23-0.29c0.05-0.11,0.07-0.23,0.07-0.36c0-0.17-0.04-0.33-0.12-0.47
			c-0.08-0.14-0.19-0.26-0.33-0.38c-0.14-0.12-0.3-0.23-0.49-0.34c-0.19-0.11-0.39-0.22-0.61-0.33c-0.56-0.29-0.97-0.64-1.25-1.06
			c-0.27-0.42-0.41-0.92-0.41-1.52c0-0.46,0.07-0.86,0.22-1.2c0.15-0.33,0.35-0.61,0.61-0.82c0.26-0.22,0.56-0.37,0.89-0.48
			c0.34-0.1,0.7-0.15,1.08-0.15c0.37,0,0.7,0.03,0.99,0.08c0.29,0.06,0.55,0.14,0.8,0.26v1.86c-0.12-0.1-0.25-0.19-0.39-0.27
			c-0.14-0.08-0.29-0.14-0.44-0.2s-0.3-0.09-0.45-0.12c-0.15-0.03-0.29-0.04-0.42-0.04c-0.18,0-0.35,0.02-0.5,0.06
			c-0.15,0.04-0.28,0.11-0.38,0.18c-0.1,0.08-0.18,0.17-0.24,0.28c-0.06,0.11-0.08,0.23-0.08,0.37c0,0.15,0.03,0.28,0.09,0.4
			c0.06,0.12,0.15,0.23,0.27,0.34s0.26,0.21,0.42,0.31s0.35,0.21,0.56,0.31c0.29,0.15,0.54,0.31,0.77,0.48
			c0.23,0.17,0.42,0.36,0.59,0.57c0.16,0.21,0.29,0.45,0.37,0.72s0.13,0.59,0.13,0.95c0,0.5-0.08,0.92-0.23,1.25
			c-0.15,0.34-0.36,0.61-0.62,0.82c-0.26,0.21-0.56,0.36-0.9,0.45c-0.34,0.09-0.71,0.14-1.09,0.14c-0.39,0-0.77-0.04-1.12-0.12
			S229.89,194.26,229.63,194.09z"/>
		<path class="st3" d="M242.02,190.57c0,2.68-1,4.02-3,4.02c-1.94,0-2.91-1.31-2.91-3.92v-5.15h1.62v5.17
			c0,1.44,0.45,2.16,1.36,2.16c0.89,0,1.33-0.7,1.33-2.09v-5.25h1.61V190.57z"/>
		<path class="st3" d="M245.69,191.36v3.07h-1.61v-8.91h2.52c1.8,0,2.7,0.95,2.7,2.84c0,0.9-0.26,1.62-0.77,2.17
			c-0.52,0.55-1.21,0.83-2.07,0.83H245.69z M245.69,187.06v2.78h0.63c0.86,0,1.29-0.47,1.29-1.4c0-0.92-0.43-1.37-1.29-1.37H245.69z
			"/>
		<path class="st3" d="M255.15,194.43h-4.29v-8.91h4.12v1.63h-2.51v1.98h2.34v1.63h-2.34v2.04h2.68V194.43z"/>
		<path class="st3" d="M262.81,194.43h-1.85l-1.11-2.29c-0.08-0.17-0.16-0.33-0.24-0.47s-0.15-0.25-0.23-0.35
			c-0.08-0.1-0.16-0.17-0.24-0.22c-0.08-0.05-0.18-0.08-0.28-0.08h-0.43v3.41h-1.61v-8.91h2.55c1.74,0,2.6,0.81,2.6,2.42
			c0,0.31-0.04,0.6-0.12,0.86c-0.08,0.26-0.18,0.5-0.32,0.71c-0.14,0.21-0.31,0.39-0.51,0.55c-0.2,0.15-0.42,0.27-0.66,0.36v0.02
			c0.11,0.04,0.21,0.11,0.31,0.2c0.1,0.09,0.2,0.2,0.29,0.33c0.09,0.12,0.18,0.26,0.27,0.4c0.08,0.14,0.16,0.28,0.23,0.42
			L262.81,194.43z M258.42,187.02v2.48h0.7c0.35,0,0.62-0.13,0.83-0.37c0.21-0.25,0.32-0.57,0.32-0.94c0-0.78-0.37-1.17-1.12-1.17
			H258.42z"/>
		<path class="st3" d="M266.2,185.52v1.55h-0.6v5.81h0.6v1.55h-2.81v-1.55h0.6v-5.81h-0.6v-1.55H266.2z"/>
		<path class="st3" d="M270.75,194.59c-1.02,0-1.86-0.42-2.5-1.25s-0.97-1.91-0.97-3.25c0-1.41,0.33-2.55,0.98-3.42
			c0.66-0.87,1.52-1.31,2.6-1.31c1.02,0,1.85,0.42,2.48,1.25s0.94,1.93,0.94,3.29c0,1.4-0.33,2.53-0.98,3.39
			C272.66,194.16,271.8,194.59,270.75,194.59z M270.82,187.1c-0.56,0-1.01,0.26-1.35,0.79s-0.5,1.23-0.5,2.1
			c0,0.88,0.17,1.58,0.5,2.09s0.77,0.77,1.31,0.77c0.55,0,1-0.25,1.32-0.75c0.33-0.5,0.49-1.19,0.49-2.08
			c0-0.92-0.16-1.64-0.47-2.16C271.8,187.36,271.37,187.1,270.82,187.1z"/>
		<path class="st3" d="M281.98,194.43h-1.85l-1.11-2.29c-0.08-0.17-0.16-0.33-0.24-0.47s-0.15-0.25-0.23-0.35
			c-0.08-0.1-0.16-0.17-0.24-0.22c-0.08-0.05-0.18-0.08-0.28-0.08h-0.43v3.41h-1.61v-8.91h2.55c1.74,0,2.6,0.81,2.6,2.42
			c0,0.31-0.04,0.6-0.12,0.86c-0.08,0.26-0.18,0.5-0.32,0.71c-0.14,0.21-0.31,0.39-0.51,0.55c-0.2,0.15-0.42,0.27-0.66,0.36v0.02
			c0.11,0.04,0.21,0.11,0.31,0.2c0.1,0.09,0.2,0.2,0.29,0.33c0.09,0.12,0.18,0.26,0.27,0.4c0.08,0.14,0.16,0.28,0.23,0.42
			L281.98,194.43z M277.6,187.02v2.48h0.7c0.35,0,0.62-0.13,0.83-0.37c0.21-0.25,0.32-0.57,0.32-0.94c0-0.78-0.37-1.17-1.12-1.17
			H277.6z"/>
		<path class="st3" d="M287.45,194.43h-4.29v-8.91h4.12v1.63h-2.51v1.98h2.34v1.63h-2.34v2.04h2.68V194.43z"/>
		<path class="st3" d="M288.78,194.09v-1.99c0.29,0.3,0.6,0.53,0.94,0.68s0.68,0.23,1.03,0.23c0.2,0,0.38-0.02,0.53-0.07
			c0.15-0.04,0.28-0.11,0.38-0.19c0.1-0.08,0.18-0.18,0.23-0.29c0.05-0.11,0.07-0.23,0.07-0.36c0-0.17-0.04-0.33-0.12-0.47
			s-0.19-0.26-0.33-0.38c-0.14-0.12-0.3-0.23-0.49-0.34c-0.19-0.11-0.39-0.22-0.61-0.33c-0.56-0.29-0.97-0.64-1.25-1.06
			c-0.27-0.42-0.41-0.92-0.41-1.52c0-0.46,0.07-0.86,0.22-1.2c0.15-0.33,0.35-0.61,0.61-0.82c0.26-0.22,0.56-0.37,0.89-0.48
			s0.7-0.15,1.08-0.15c0.37,0,0.7,0.03,0.99,0.08c0.29,0.06,0.55,0.14,0.79,0.26v1.86c-0.12-0.1-0.25-0.19-0.39-0.27
			c-0.14-0.08-0.29-0.14-0.44-0.2s-0.3-0.09-0.45-0.12c-0.15-0.03-0.29-0.04-0.42-0.04c-0.18,0-0.35,0.02-0.5,0.06
			c-0.15,0.04-0.28,0.11-0.38,0.18c-0.1,0.08-0.18,0.17-0.24,0.28c-0.06,0.11-0.08,0.23-0.08,0.37c0,0.15,0.03,0.28,0.09,0.4
			c0.06,0.12,0.15,0.23,0.27,0.34s0.26,0.21,0.42,0.31s0.35,0.21,0.56,0.31c0.29,0.15,0.54,0.31,0.77,0.48
			c0.23,0.17,0.42,0.36,0.58,0.57c0.16,0.21,0.29,0.45,0.37,0.72c0.09,0.27,0.13,0.59,0.13,0.95c0,0.5-0.08,0.92-0.23,1.25
			c-0.15,0.34-0.36,0.61-0.62,0.82c-0.26,0.21-0.56,0.36-0.9,0.45s-0.71,0.14-1.09,0.14c-0.39,0-0.76-0.04-1.12-0.12
			C289.34,194.38,289.04,194.26,288.78,194.09z"/>
		<path class="st3" d="M298.67,194.43v-8.91h2.53c2.54,0,3.81,1.45,3.81,4.34c0,1.39-0.35,2.5-1.04,3.33
			c-0.69,0.83-1.62,1.24-2.77,1.24H298.67z M300.28,187.15v5.65h0.8c0.7,0,1.25-0.26,1.64-0.78c0.4-0.52,0.6-1.23,0.6-2.13
			c0-0.85-0.2-1.52-0.59-2c-0.39-0.49-0.95-0.73-1.66-0.73H300.28z"/>
		<path class="st3" d="M310.99,194.43h-4.29v-8.91h4.12v1.63h-2.51v1.98h2.34v1.63h-2.34v2.04h2.68V194.43z"/>
		<path class="st3" d="M316.91,194.43h-4.26v-8.91h1.61v7.28h2.65V194.43z"/>
		<path class="st3" d="M321.71,194.43v-8.91h2.53c2.54,0,3.81,1.45,3.81,4.34c0,1.39-0.35,2.5-1.04,3.33
			c-0.69,0.83-1.62,1.24-2.77,1.24H321.71z M323.32,187.15v5.65h0.8c0.7,0,1.25-0.26,1.64-0.78c0.4-0.52,0.6-1.23,0.6-2.13
			c0-0.85-0.2-1.52-0.59-2c-0.39-0.49-0.95-0.73-1.66-0.73H323.32z"/>
		<path class="st3" d="M334.04,194.43h-4.29v-8.91h4.12v1.63h-2.51v1.98h2.34v1.63h-2.34v2.04h2.68V194.43z"/>
		<path class="st3" d="M337.3,191.36v3.07h-1.61v-8.91h2.52c1.8,0,2.7,0.95,2.7,2.84c0,0.9-0.26,1.62-0.77,2.17
			c-0.52,0.55-1.21,0.83-2.07,0.83H337.3z M337.3,187.06v2.78h0.63c0.86,0,1.29-0.47,1.29-1.4c0-0.92-0.43-1.37-1.29-1.37H337.3z"/>
		<path class="st3" d="M345.5,194.59c-1.02,0-1.86-0.42-2.5-1.25s-0.97-1.91-0.97-3.25c0-1.41,0.33-2.55,0.98-3.42
			c0.66-0.87,1.52-1.31,2.6-1.31c1.02,0,1.85,0.42,2.48,1.25s0.94,1.93,0.94,3.29c0,1.4-0.33,2.53-0.98,3.39
			C347.4,194.16,346.54,194.59,345.5,194.59z M345.56,187.1c-0.56,0-1.01,0.26-1.35,0.79s-0.5,1.23-0.5,2.1
			c0,0.88,0.17,1.58,0.5,2.09s0.77,0.77,1.31,0.77c0.55,0,1-0.25,1.32-0.75c0.33-0.5,0.49-1.19,0.49-2.08
			c0-0.92-0.16-1.64-0.47-2.16C346.54,187.36,346.11,187.1,345.56,187.1z"/>
		<path class="st3" d="M356.72,194.43h-1.85l-1.11-2.29c-0.08-0.17-0.16-0.33-0.24-0.47s-0.15-0.25-0.23-0.35
			c-0.08-0.1-0.16-0.17-0.24-0.22c-0.08-0.05-0.18-0.08-0.28-0.08h-0.43v3.41h-1.61v-8.91h2.55c1.74,0,2.6,0.81,2.6,2.42
			c0,0.31-0.04,0.6-0.12,0.86c-0.08,0.26-0.18,0.5-0.32,0.71c-0.14,0.21-0.31,0.39-0.51,0.55c-0.2,0.15-0.42,0.27-0.66,0.36v0.02
			c0.11,0.04,0.21,0.11,0.31,0.2c0.1,0.09,0.2,0.2,0.29,0.33c0.09,0.12,0.18,0.26,0.27,0.4c0.08,0.14,0.16,0.28,0.23,0.42
			L356.72,194.43z M352.34,187.02v2.48h0.7c0.35,0,0.62-0.13,0.83-0.37c0.21-0.25,0.32-0.57,0.32-0.94c0-0.78-0.37-1.17-1.12-1.17
			H352.34z"/>
		<path class="st3" d="M362.92,187.15h-2.04v7.28h-1.62v-7.28h-2.03v-1.63h5.68V187.15z"/>
		<path class="st3" d="M368.68,194.43h-4.29v-8.91h4.12v1.63h-2.51v1.98h2.34v1.63h-2.34v2.04h2.68V194.43z"/>
	</g>
	<g>
		<g>
			<path class="st3" d="M272.56,120.87h6.56c0.88,0,1.59-0.72,1.59-1.59V99.1c0-0.88-0.72-1.59-1.59-1.59h-6.56
				c-0.88,0-1.59,0.72-1.59,1.59v20.18C270.97,120.15,271.68,120.87,272.56,120.87z"/>
			<path class="st3" d="M284.43,118.14h6.56c0.88,0,1.59-0.72,1.59-1.59v-14.72c0-0.88-0.72-1.59-1.59-1.59h-6.56
				c-0.88,0-1.59,0.72-1.59,1.59v14.72C282.83,117.43,283.55,118.14,284.43,118.14z"/>
			<path class="st3" d="M260.69,123.27h6.56c0.88,0,1.59-0.72,1.59-1.59V96.7c0-0.88-0.72-1.59-1.59-1.59h-6.56
				c-0.88,0-1.59,0.72-1.59,1.59v24.97C259.1,122.55,259.81,123.27,260.69,123.27z"/>
			<g>
				<rect x="210.92" y="107.6" class="st3" width="52.26" height="3.3"/>
			</g>
		</g>
	</g>
	<g>
		<path class="st3" d="M200.94,120.97h-6.52c-0.88,0-1.59-0.72-1.59-1.59V99.19c0-0.88,0.72-1.59,1.59-1.59h6.52
			c0.88,0,1.59,0.72,1.59,1.59v20.18C202.53,120.25,201.81,120.97,200.94,120.97z"/>
		<path class="st3" d="M189.12,118.24h-6.52c-0.88,0-1.59-0.72-1.59-1.59v-14.72c0-0.88,0.72-1.59,1.59-1.59h6.52
			c0.88,0,1.59,0.72,1.59,1.59v14.72C190.72,117.52,190,118.24,189.12,118.24z"/>
		<path class="st3" d="M212.75,123.36h-6.52c-0.88,0-1.59-0.72-1.59-1.59V96.8c0-0.88,0.72-1.59,1.59-1.59h6.52
			c0.88,0,1.59,0.72,1.59,1.59v24.97C214.35,122.65,213.63,123.36,212.75,123.36z"/>
		<g>
			<rect x="210.28" y="107.7" class="st3" width="52.02" height="3.3"/>
		</g>
	</g>
	
		<radialGradient id="SVGID_4_" cx="-12.578" cy="-171.5907" r="135.3094" gradientTransform="matrix(0.994 0 0 0.2189 -13.3144 2.986)" gradientUnits="userSpaceOnUse">
		<stop  offset="0" style="stop-color:#C4C5C5"/>
		<stop  offset="0.0979" style="stop-color:#CECFCF"/>
		<stop  offset="0.4123" style="stop-color:#E9E9E9"/>
		<stop  offset="0.6916" style="stop-color:#F9F9F9"/>
		<stop  offset="0.905" style="stop-color:#FFFFFF"/>
	</radialGradient>
	<ellipse class="st4" cx="-25.82" cy="-34.57" rx="165.97" ry="30.47"/>
	<defs>
		<filter id="Adobe_OpacityMaskFilter" filterUnits="userSpaceOnUse" x="121.22" y="283.39" width="76.16" height="38">
			<feColorMatrix  type="matrix" values="1 0 0 0 0  0 1 0 0 0  0 0 1 0 0  0 0 0 1 0"/>
		</filter>
	</defs>
	<mask maskUnits="userSpaceOnUse" x="121.22" y="283.39" width="76.16" height="38" id="SVGID_5_">
		<g class="st5">
			<g>
				<text transform="matrix(0.2517 0 0 1 124.4942 323.964)"><tspan x="0" y="0" class="st6 st7 st8">SPO</tspan><tspan x="73.83" y="0" class="st6 st7 st8">R</tspan><tspan x="97.35" y="0" class="st6 st7 st8">T</tspan><tspan x="118.61" y="0" class="st6 st7 st8">L</tspan><tspan x="136.99" y="0" class="st6 st7 st8">OGO</tspan></text>
			</g>
		</g>
	</mask>
	<linearGradient id="SVGID_6_" gradientUnits="userSpaceOnUse" x1="159.2953" y1="284.2945" x2="159.2953" y2="341.3966">
		<stop  offset="0" style="stop-color:#83E2EC"/>
		<stop  offset="0.1493" style="stop-color:#79DAE9;stop-opacity:0.8507"/>
		<stop  offset="0.4104" style="stop-color:#5CC5E0;stop-opacity:0.5896"/>
		<stop  offset="0.7499" style="stop-color:#2DA4D1;stop-opacity:0.2501"/>
		<stop  offset="1" style="stop-color:#0688C4;stop-opacity:0"/>
	</linearGradient>
	<path class="st9" d="M197.37,321.39c-24.93-22.21-51.23-22.21-76.16,0c0-12.67,0-25.34,0-38c25.39,0,50.77,0,76.16,0
		C197.37,296.06,197.37,308.72,197.37,321.39z"/>
	<rect x="86.6" y="227.44" width="313.92" height="138.1"/>
	<g>
		<path class="st10" d="M210.19,269.87h-6.52c-0.88,0-1.59-0.72-1.59-1.59V248.1c0-0.88,0.72-1.59,1.59-1.59h6.52
			c0.88,0,1.59,0.72,1.59,1.59v20.18C211.78,269.15,211.06,269.87,210.19,269.87z"/>
		<path class="st10" d="M198.37,267.14h-6.52c-0.88,0-1.59-0.72-1.59-1.59v-14.72c0-0.88,0.72-1.59,1.59-1.59h6.52
			c0.88,0,1.59,0.72,1.59,1.59v14.72C199.96,266.42,199.25,267.14,198.37,267.14z"/>
		<path class="st10" d="M222,272.27h-6.52c-0.88,0-1.59-0.72-1.59-1.59V245.7c0-0.88,0.72-1.59,1.59-1.59H222
			c0.88,0,1.59,0.72,1.59,1.59v24.97C223.59,271.55,222.88,272.27,222,272.27z"/>
		<g>
			<rect x="219.52" y="256.6" class="st10" width="52.02" height="3.3"/>
		</g>
	</g>
	<g>
		<g>
			<path class="st10" d="M281.81,269.77h6.56c0.88,0,1.59-0.72,1.59-1.59V248c0-0.88-0.72-1.59-1.59-1.59h-6.56
				c-0.88,0-1.59,0.72-1.59,1.59v20.18C280.21,269.06,280.93,269.77,281.81,269.77z"/>
			<path class="st10" d="M293.67,267.04h6.56c0.88,0,1.59-0.72,1.59-1.59v-14.72c0-0.88-0.72-1.59-1.59-1.59h-6.56
				c-0.88,0-1.59,0.72-1.59,1.59v14.72C292.08,266.33,292.8,267.04,293.67,267.04z"/>
			<path class="st10" d="M269.94,272.17h6.56c0.88,0,1.59-0.72,1.59-1.59V245.6c0-0.88-0.72-1.59-1.59-1.59h-6.56
				c-0.88,0-1.59,0.72-1.59,1.59v24.97C268.34,271.45,269.06,272.17,269.94,272.17z"/>
			<g>
				<rect x="220.17" y="256.5" class="st10" width="52.26" height="3.3"/>
			</g>
		</g>
	</g>
	<g>
		<path class="st10" d="M118.11,343.33h-4.29v-8.91h4.12v1.63h-2.51v1.98h2.34v1.63h-2.34v2.04h2.68V343.33z"/>
		<path class="st10" d="M119.44,342.99V341c0.29,0.3,0.6,0.53,0.94,0.68c0.34,0.15,0.68,0.23,1.03,0.23c0.2,0,0.38-0.02,0.53-0.07
			c0.15-0.04,0.28-0.11,0.38-0.19c0.1-0.08,0.18-0.18,0.23-0.29c0.05-0.11,0.07-0.23,0.07-0.36c0-0.17-0.04-0.33-0.12-0.47
			c-0.08-0.14-0.19-0.26-0.33-0.38c-0.14-0.12-0.3-0.23-0.49-0.34c-0.19-0.11-0.39-0.22-0.61-0.33c-0.56-0.29-0.97-0.64-1.25-1.06
			c-0.27-0.42-0.41-0.92-0.41-1.52c0-0.46,0.07-0.86,0.22-1.2c0.15-0.33,0.35-0.61,0.61-0.82c0.26-0.22,0.56-0.37,0.89-0.48
			c0.34-0.1,0.7-0.15,1.08-0.15c0.37,0,0.7,0.03,0.99,0.08c0.29,0.06,0.55,0.14,0.8,0.26v1.86c-0.12-0.1-0.25-0.19-0.39-0.27
			c-0.14-0.08-0.29-0.14-0.44-0.2s-0.3-0.09-0.45-0.12c-0.15-0.03-0.29-0.04-0.42-0.04c-0.18,0-0.35,0.02-0.5,0.06
			c-0.15,0.04-0.28,0.11-0.38,0.18c-0.1,0.08-0.18,0.17-0.24,0.28c-0.06,0.11-0.08,0.23-0.08,0.37c0,0.15,0.03,0.28,0.09,0.4
			c0.06,0.12,0.15,0.23,0.27,0.34s0.26,0.21,0.42,0.31s0.35,0.21,0.56,0.31c0.29,0.15,0.54,0.31,0.77,0.48
			c0.23,0.17,0.42,0.36,0.59,0.57c0.16,0.21,0.29,0.45,0.37,0.72s0.13,0.59,0.13,0.95c0,0.5-0.08,0.92-0.23,1.25
			c-0.15,0.34-0.36,0.61-0.62,0.82c-0.26,0.21-0.56,0.36-0.9,0.45c-0.34,0.09-0.71,0.14-1.09,0.14c-0.39,0-0.77-0.04-1.12-0.12
			S119.7,343.16,119.44,342.99z"/>
		<path class="st10" d="M131.13,343.02c-0.52,0.32-1.2,0.47-2.04,0.47c-1.1,0-1.96-0.4-2.59-1.21c-0.63-0.8-0.94-1.88-0.94-3.21
			c0-1.43,0.35-2.58,1.06-3.47c0.71-0.89,1.62-1.33,2.75-1.33c0.7,0,1.29,0.11,1.77,0.33v1.93c-0.48-0.36-1.02-0.54-1.64-0.54
			c-0.67,0-1.21,0.26-1.63,0.79s-0.62,1.24-0.62,2.14c0,0.86,0.19,1.55,0.58,2.06c0.39,0.51,0.91,0.77,1.57,0.77
			c0.63,0,1.2-0.19,1.73-0.57V343.02z"/>
		<path class="st10" d="M138.72,339.47c0,2.68-1,4.02-3,4.02c-1.94,0-2.91-1.31-2.91-3.92v-5.15h1.62v5.17
			c0,1.44,0.45,2.16,1.36,2.16c0.89,0,1.33-0.7,1.33-2.09v-5.25h1.61V339.47z"/>
		<path class="st10" d="M145.07,343.33h-4.29v-8.91h4.12v1.63h-2.51v1.98h2.34v1.63h-2.34v2.04h2.68V343.33z"/>
		<path class="st10" d="M150.98,343.33h-4.26v-8.91h1.61v7.28h2.65V343.33z"/>
		<path class="st10" d="M158.74,343.33h-1.75l-0.51-1.98h-2.54l-0.5,1.98h-1.75l2.6-8.91h1.91L158.74,343.33z M156.11,339.81
			l-0.77-3c-0.06-0.22-0.1-0.49-0.12-0.8h-0.04c-0.02,0.26-0.06,0.52-0.12,0.78l-0.78,3.02H156.11z"/>
		<path class="st10" d="M163.47,343.33v-8.91h2.53c2.54,0,3.81,1.45,3.81,4.34c0,1.39-0.35,2.5-1.04,3.33s-1.62,1.24-2.77,1.24
			H163.47z M165.08,336.06v5.65h0.8c0.7,0,1.25-0.26,1.64-0.78c0.4-0.52,0.6-1.23,0.6-2.13c0-0.85-0.2-1.52-0.59-2
			c-0.39-0.49-0.95-0.73-1.66-0.73H165.08z"/>
		<path class="st10" d="M175.8,343.33h-4.29v-8.91h4.12v1.63h-2.51v1.98h2.34v1.63h-2.34v2.04h2.68V343.33z"/>
		<path class="st10" d="M185.07,343.33h-4.29v-8.91h4.12v1.63h-2.51v1.98h2.34v1.63h-2.34v2.04h2.68V343.33z"/>
		<path class="st10" d="M186.4,342.99V341c0.29,0.3,0.6,0.53,0.94,0.68c0.34,0.15,0.68,0.23,1.03,0.23c0.2,0,0.38-0.02,0.53-0.07
			c0.15-0.04,0.28-0.11,0.38-0.19c0.1-0.08,0.18-0.18,0.23-0.29c0.05-0.11,0.07-0.23,0.07-0.36c0-0.17-0.04-0.33-0.12-0.47
			c-0.08-0.14-0.19-0.26-0.33-0.38c-0.14-0.12-0.3-0.23-0.49-0.34c-0.19-0.11-0.39-0.22-0.61-0.33c-0.56-0.29-0.97-0.64-1.25-1.06
			c-0.27-0.42-0.41-0.92-0.41-1.52c0-0.46,0.07-0.86,0.22-1.2c0.15-0.33,0.35-0.61,0.61-0.82c0.26-0.22,0.56-0.37,0.89-0.48
			c0.34-0.1,0.7-0.15,1.08-0.15c0.37,0,0.7,0.03,0.99,0.08c0.29,0.06,0.55,0.14,0.8,0.26v1.86c-0.12-0.1-0.25-0.19-0.39-0.27
			c-0.14-0.08-0.29-0.14-0.44-0.2s-0.3-0.09-0.45-0.12c-0.15-0.03-0.29-0.04-0.42-0.04c-0.18,0-0.35,0.02-0.5,0.06
			c-0.15,0.04-0.28,0.11-0.38,0.18c-0.1,0.08-0.18,0.17-0.24,0.28c-0.06,0.11-0.08,0.23-0.08,0.37c0,0.15,0.03,0.28,0.09,0.4
			c0.06,0.12,0.15,0.23,0.27,0.34s0.26,0.21,0.42,0.31s0.35,0.21,0.56,0.31c0.29,0.15,0.54,0.31,0.77,0.48
			c0.23,0.17,0.42,0.36,0.59,0.57c0.16,0.21,0.29,0.45,0.37,0.72s0.13,0.59,0.13,0.95c0,0.5-0.08,0.92-0.23,1.25
			c-0.15,0.34-0.36,0.61-0.62,0.82c-0.26,0.21-0.56,0.36-0.9,0.45c-0.34,0.09-0.71,0.14-1.09,0.14c-0.39,0-0.77-0.04-1.12-0.12
			S186.66,343.16,186.4,342.99z"/>
		<path class="st10" d="M197.98,336.06h-2.04v7.28h-1.62v-7.28h-2.03v-1.63h5.68V336.06z"/>
		<path class="st10" d="M205.28,339.47c0,2.68-1,4.02-3,4.02c-1.94,0-2.91-1.31-2.91-3.92v-5.15h1.62v5.17
			c0,1.44,0.45,2.16,1.36,2.16c0.89,0,1.33-0.7,1.33-2.09v-5.25h1.61V339.47z"/>
		<path class="st10" d="M207.35,343.33v-8.91h2.53c2.54,0,3.81,1.45,3.81,4.34c0,1.39-0.35,2.5-1.04,3.33s-1.62,1.24-2.77,1.24
			H207.35z M208.96,336.06v5.65h0.8c0.7,0,1.25-0.26,1.64-0.78c0.4-0.52,0.6-1.23,0.6-2.13c0-0.85-0.2-1.52-0.59-2
			c-0.39-0.49-0.95-0.73-1.66-0.73H208.96z"/>
		<path class="st10" d="M217.6,334.42v1.55H217v5.81h0.6v1.55h-2.81v-1.55h0.6v-5.81h-0.6v-1.55H217.6z"/>
		<path class="st10" d="M222.15,343.49c-1.02,0-1.86-0.42-2.5-1.25c-0.64-0.83-0.97-1.91-0.97-3.25c0-1.41,0.33-2.55,0.98-3.42
			s1.52-1.31,2.6-1.31c1.02,0,1.85,0.42,2.48,1.25s0.94,1.93,0.94,3.29c0,1.4-0.33,2.53-0.98,3.39
			C224.06,343.06,223.21,343.49,222.15,343.49z M222.22,336c-0.56,0-1.01,0.26-1.35,0.79s-0.5,1.23-0.5,2.1
			c0,0.88,0.17,1.58,0.5,2.09s0.77,0.77,1.31,0.77c0.56,0,1-0.25,1.32-0.75c0.33-0.5,0.49-1.19,0.49-2.08
			c0-0.92-0.16-1.64-0.47-2.16C223.21,336.26,222.77,336,222.22,336z"/>
		<path class="st10" d="M227.06,342.99V341c0.29,0.3,0.6,0.53,0.94,0.68c0.34,0.15,0.68,0.23,1.03,0.23c0.2,0,0.38-0.02,0.53-0.07
			c0.15-0.04,0.28-0.11,0.38-0.19c0.1-0.08,0.18-0.18,0.23-0.29c0.05-0.11,0.07-0.23,0.07-0.36c0-0.17-0.04-0.33-0.12-0.47
			c-0.08-0.14-0.19-0.26-0.33-0.38c-0.14-0.12-0.3-0.23-0.49-0.34c-0.19-0.11-0.39-0.22-0.61-0.33c-0.56-0.29-0.97-0.64-1.25-1.06
			c-0.27-0.42-0.41-0.92-0.41-1.52c0-0.46,0.07-0.86,0.22-1.2c0.15-0.33,0.35-0.61,0.61-0.82c0.26-0.22,0.56-0.37,0.89-0.48
			c0.34-0.1,0.7-0.15,1.08-0.15c0.37,0,0.7,0.03,0.99,0.08c0.29,0.06,0.55,0.14,0.8,0.26v1.86c-0.12-0.1-0.25-0.19-0.39-0.27
			c-0.14-0.08-0.29-0.14-0.44-0.2s-0.3-0.09-0.45-0.12c-0.15-0.03-0.29-0.04-0.42-0.04c-0.18,0-0.35,0.02-0.5,0.06
			c-0.15,0.04-0.28,0.11-0.38,0.18c-0.1,0.08-0.18,0.17-0.24,0.28c-0.06,0.11-0.08,0.23-0.08,0.37c0,0.15,0.03,0.28,0.09,0.4
			c0.06,0.12,0.15,0.23,0.27,0.34s0.26,0.21,0.42,0.31s0.35,0.21,0.56,0.31c0.29,0.15,0.54,0.31,0.77,0.48
			c0.23,0.17,0.42,0.36,0.59,0.57c0.16,0.21,0.29,0.45,0.37,0.72s0.13,0.59,0.13,0.95c0,0.5-0.08,0.92-0.23,1.25
			c-0.15,0.34-0.36,0.61-0.62,0.82c-0.26,0.21-0.56,0.36-0.9,0.45c-0.34,0.09-0.71,0.14-1.09,0.14c-0.39,0-0.77-0.04-1.12-0.12
			S227.32,343.16,227.06,342.99z"/>
		<path class="st10" d="M236.62,342.99V341c0.29,0.3,0.6,0.53,0.94,0.68c0.34,0.15,0.68,0.23,1.03,0.23c0.2,0,0.38-0.02,0.53-0.07
			c0.15-0.04,0.28-0.11,0.38-0.19c0.1-0.08,0.18-0.18,0.23-0.29c0.05-0.11,0.07-0.23,0.07-0.36c0-0.17-0.04-0.33-0.12-0.47
			c-0.08-0.14-0.19-0.26-0.33-0.38c-0.14-0.12-0.3-0.23-0.49-0.34c-0.19-0.11-0.39-0.22-0.61-0.33c-0.56-0.29-0.97-0.64-1.25-1.06
			c-0.27-0.42-0.41-0.92-0.41-1.52c0-0.46,0.07-0.86,0.22-1.2c0.15-0.33,0.35-0.61,0.61-0.82c0.26-0.22,0.56-0.37,0.89-0.48
			c0.34-0.1,0.7-0.15,1.08-0.15c0.37,0,0.7,0.03,0.99,0.08c0.29,0.06,0.55,0.14,0.8,0.26v1.86c-0.12-0.1-0.25-0.19-0.39-0.27
			c-0.14-0.08-0.29-0.14-0.44-0.2s-0.3-0.09-0.45-0.12c-0.15-0.03-0.29-0.04-0.42-0.04c-0.18,0-0.35,0.02-0.5,0.06
			c-0.15,0.04-0.28,0.11-0.38,0.18c-0.1,0.08-0.18,0.17-0.24,0.28c-0.06,0.11-0.08,0.23-0.08,0.37c0,0.15,0.03,0.28,0.09,0.4
			c0.06,0.12,0.15,0.23,0.27,0.34s0.26,0.21,0.42,0.31s0.35,0.21,0.56,0.31c0.29,0.15,0.54,0.31,0.77,0.48
			c0.23,0.17,0.42,0.36,0.59,0.57c0.16,0.21,0.29,0.45,0.37,0.72s0.13,0.59,0.13,0.95c0,0.5-0.08,0.92-0.23,1.25
			c-0.15,0.34-0.36,0.61-0.62,0.82c-0.26,0.21-0.56,0.36-0.9,0.45c-0.34,0.09-0.71,0.14-1.09,0.14c-0.39,0-0.77-0.04-1.12-0.12
			S236.88,343.16,236.62,342.99z"/>
		<path class="st10" d="M249.01,339.47c0,2.68-1,4.02-3,4.02c-1.94,0-2.91-1.31-2.91-3.92v-5.15h1.62v5.17
			c0,1.44,0.45,2.16,1.36,2.16c0.89,0,1.33-0.7,1.33-2.09v-5.25h1.61V339.47z"/>
		<path class="st10" d="M252.69,340.26v3.07h-1.61v-8.91h2.52c1.8,0,2.7,0.95,2.7,2.84c0,0.9-0.26,1.62-0.77,2.17
			c-0.52,0.55-1.21,0.83-2.07,0.83H252.69z M252.69,335.96v2.78h0.63c0.86,0,1.29-0.47,1.29-1.4c0-0.92-0.43-1.37-1.29-1.37H252.69z
			"/>
		<path class="st10" d="M262.15,343.33h-4.29v-8.91h4.12v1.63h-2.51v1.98h2.34v1.63h-2.34v2.04h2.68V343.33z"/>
		<path class="st10" d="M269.8,343.33h-1.85l-1.11-2.29c-0.08-0.17-0.16-0.33-0.24-0.47s-0.15-0.25-0.23-0.35
			c-0.08-0.1-0.16-0.17-0.24-0.22c-0.08-0.05-0.18-0.08-0.28-0.08h-0.43v3.41h-1.61v-8.91h2.55c1.74,0,2.6,0.81,2.6,2.42
			c0,0.31-0.04,0.6-0.12,0.86c-0.08,0.26-0.18,0.5-0.32,0.71c-0.14,0.21-0.31,0.39-0.51,0.55c-0.2,0.15-0.42,0.27-0.66,0.36v0.02
			c0.11,0.04,0.21,0.11,0.31,0.2c0.1,0.09,0.2,0.2,0.29,0.33c0.09,0.12,0.18,0.26,0.27,0.4c0.08,0.14,0.16,0.28,0.23,0.42
			L269.8,343.33z M265.41,335.93v2.48h0.7c0.35,0,0.62-0.13,0.83-0.37c0.21-0.25,0.32-0.57,0.32-0.94c0-0.78-0.37-1.17-1.12-1.17
			H265.41z"/>
		<path class="st10" d="M273.19,334.42v1.55h-0.6v5.81h0.6v1.55h-2.81v-1.55h0.6v-5.81h-0.6v-1.55H273.19z"/>
		<path class="st10" d="M277.75,343.49c-1.02,0-1.86-0.42-2.5-1.25s-0.97-1.91-0.97-3.25c0-1.41,0.33-2.55,0.98-3.42
			c0.66-0.87,1.52-1.31,2.6-1.31c1.02,0,1.85,0.42,2.48,1.25s0.94,1.93,0.94,3.29c0,1.4-0.33,2.53-0.98,3.39
			C279.65,343.06,278.8,343.49,277.75,343.49z M277.82,336c-0.56,0-1.01,0.26-1.35,0.79s-0.5,1.23-0.5,2.1
			c0,0.88,0.17,1.58,0.5,2.09s0.77,0.77,1.31,0.77c0.55,0,1-0.25,1.32-0.75c0.33-0.5,0.49-1.19,0.49-2.08
			c0-0.92-0.16-1.64-0.47-2.16C278.8,336.26,278.36,336,277.82,336z"/>
		<path class="st10" d="M288.98,343.33h-1.85l-1.11-2.29c-0.08-0.17-0.16-0.33-0.24-0.47s-0.15-0.25-0.23-0.35
			c-0.08-0.1-0.16-0.17-0.24-0.22c-0.08-0.05-0.18-0.08-0.28-0.08h-0.43v3.41h-1.61v-8.91h2.55c1.74,0,2.6,0.81,2.6,2.42
			c0,0.31-0.04,0.6-0.12,0.86c-0.08,0.26-0.18,0.5-0.32,0.71c-0.14,0.21-0.31,0.39-0.51,0.55c-0.2,0.15-0.42,0.27-0.66,0.36v0.02
			c0.11,0.04,0.21,0.11,0.31,0.2c0.1,0.09,0.2,0.2,0.29,0.33c0.09,0.12,0.18,0.26,0.27,0.4c0.08,0.14,0.16,0.28,0.23,0.42
			L288.98,343.33z M284.59,335.93v2.48h0.7c0.35,0,0.62-0.13,0.83-0.37c0.21-0.25,0.32-0.57,0.32-0.94c0-0.78-0.37-1.17-1.12-1.17
			H284.59z"/>
		<path class="st10" d="M294.44,343.33h-4.29v-8.91h4.12v1.63h-2.51v1.98h2.34v1.63h-2.34v2.04h2.68V343.33z"/>
		<path class="st10" d="M295.77,342.99V341c0.29,0.3,0.6,0.53,0.94,0.68s0.68,0.23,1.03,0.23c0.2,0,0.38-0.02,0.53-0.07
			c0.15-0.04,0.28-0.11,0.38-0.19c0.1-0.08,0.18-0.18,0.23-0.29c0.05-0.11,0.07-0.23,0.07-0.36c0-0.17-0.04-0.33-0.12-0.47
			s-0.19-0.26-0.33-0.38c-0.14-0.12-0.3-0.23-0.49-0.34c-0.19-0.11-0.39-0.22-0.61-0.33c-0.56-0.29-0.97-0.64-1.25-1.06
			c-0.27-0.42-0.41-0.92-0.41-1.52c0-0.46,0.07-0.86,0.22-1.2c0.15-0.33,0.35-0.61,0.61-0.82c0.26-0.22,0.56-0.37,0.89-0.48
			s0.7-0.15,1.08-0.15c0.37,0,0.7,0.03,0.99,0.08c0.29,0.06,0.55,0.14,0.79,0.26v1.86c-0.12-0.1-0.25-0.19-0.39-0.27
			c-0.14-0.08-0.29-0.14-0.44-0.2s-0.3-0.09-0.45-0.12c-0.15-0.03-0.29-0.04-0.42-0.04c-0.18,0-0.35,0.02-0.5,0.06
			c-0.15,0.04-0.28,0.11-0.38,0.18c-0.1,0.08-0.18,0.17-0.24,0.28c-0.06,0.11-0.08,0.23-0.08,0.37c0,0.15,0.03,0.28,0.09,0.4
			c0.06,0.12,0.15,0.23,0.27,0.34s0.26,0.21,0.42,0.31s0.35,0.21,0.56,0.31c0.29,0.15,0.54,0.31,0.77,0.48
			c0.23,0.17,0.42,0.36,0.58,0.57c0.16,0.21,0.29,0.45,0.37,0.72c0.09,0.27,0.13,0.59,0.13,0.95c0,0.5-0.08,0.92-0.23,1.25
			c-0.15,0.34-0.36,0.61-0.62,0.82c-0.26,0.21-0.56,0.36-0.9,0.45s-0.71,0.14-1.09,0.14c-0.39,0-0.76-0.04-1.12-0.12
			C296.33,343.28,296.03,343.16,295.77,342.99z"/>
		<path class="st10" d="M305.66,343.33v-8.91h2.53c2.54,0,3.81,1.45,3.81,4.34c0,1.39-0.35,2.5-1.04,3.33
			c-0.69,0.83-1.62,1.24-2.77,1.24H305.66z M307.27,336.06v5.65h0.8c0.7,0,1.25-0.26,1.64-0.78c0.4-0.52,0.6-1.23,0.6-2.13
			c0-0.85-0.2-1.52-0.59-2c-0.39-0.49-0.95-0.73-1.66-0.73H307.27z"/>
		<path class="st10" d="M317.99,343.33h-4.29v-8.91h4.12v1.63h-2.51v1.98h2.34v1.63h-2.34v2.04h2.68V343.33z"/>
		<path class="st10" d="M323.9,343.33h-4.26v-8.91h1.61v7.28h2.65V343.33z"/>
		<path class="st10" d="M328.7,343.33v-8.91h2.53c2.54,0,3.81,1.45,3.81,4.34c0,1.39-0.35,2.5-1.04,3.33
			c-0.69,0.83-1.62,1.24-2.77,1.24H328.7z M330.31,336.06v5.65h0.8c0.7,0,1.25-0.26,1.64-0.78c0.4-0.52,0.6-1.23,0.6-2.13
			c0-0.85-0.2-1.52-0.59-2c-0.39-0.49-0.95-0.73-1.66-0.73H330.31z"/>
		<path class="st10" d="M341.03,343.33h-4.29v-8.91h4.12v1.63h-2.51v1.98h2.34v1.63h-2.34v2.04h2.68V343.33z"/>
		<path class="st10" d="M344.29,340.26v3.07h-1.61v-8.91h2.52c1.8,0,2.7,0.95,2.7,2.84c0,0.9-0.26,1.62-0.77,2.17
			c-0.52,0.55-1.21,0.83-2.07,0.83H344.29z M344.29,335.96v2.78h0.63c0.86,0,1.29-0.47,1.29-1.4c0-0.92-0.43-1.37-1.29-1.37H344.29z
			"/>
		<path class="st10" d="M352.49,343.49c-1.02,0-1.86-0.42-2.5-1.25s-0.97-1.91-0.97-3.25c0-1.41,0.33-2.55,0.98-3.42
			c0.66-0.87,1.52-1.31,2.6-1.31c1.02,0,1.85,0.42,2.48,1.25s0.94,1.93,0.94,3.29c0,1.4-0.33,2.53-0.98,3.39
			C354.39,343.06,353.54,343.49,352.49,343.49z M352.56,336c-0.56,0-1.01,0.26-1.35,0.79s-0.5,1.23-0.5,2.1
			c0,0.88,0.17,1.58,0.5,2.09s0.77,0.77,1.31,0.77c0.55,0,1-0.25,1.32-0.75c0.33-0.5,0.49-1.19,0.49-2.08
			c0-0.92-0.16-1.64-0.47-2.16C353.54,336.26,353.1,336,352.56,336z"/>
		<path class="st10" d="M363.72,343.33h-1.85l-1.11-2.29c-0.08-0.17-0.16-0.33-0.24-0.47s-0.15-0.25-0.23-0.35
			c-0.08-0.1-0.16-0.17-0.24-0.22c-0.08-0.05-0.18-0.08-0.28-0.08h-0.43v3.41h-1.61v-8.91h2.55c1.74,0,2.6,0.81,2.6,2.42
			c0,0.31-0.04,0.6-0.12,0.86c-0.08,0.26-0.18,0.5-0.32,0.71c-0.14,0.21-0.31,0.39-0.51,0.55c-0.2,0.15-0.42,0.27-0.66,0.36v0.02
			c0.11,0.04,0.21,0.11,0.31,0.2c0.1,0.09,0.2,0.2,0.29,0.33c0.09,0.12,0.18,0.26,0.27,0.4c0.08,0.14,0.16,0.28,0.23,0.42
			L363.72,343.33z M359.33,335.93v2.48h0.7c0.35,0,0.62-0.13,0.83-0.37c0.21-0.25,0.32-0.57,0.32-0.94c0-0.78-0.37-1.17-1.12-1.17
			H359.33z"/>
		<path class="st10" d="M369.92,336.06h-2.04v7.28h-1.62v-7.28h-2.03v-1.63h5.68V336.06z"/>
		<path class="st10" d="M375.68,343.33h-4.29v-8.91h4.12v1.63H373v1.98h2.34v1.63H373v2.04h2.68V343.33z"/>
	</g>
	<g>
		<path class="st2" d="M153.27,290.3l-2.41,8.8h-13.49l-0.61,2.2H148l-2.41,8.8h-11.25l-0.61,2.2h13.49l-2.41,8.8h-22.49l8.43-30.79
			H153.27z"/>
		<path class="st2" d="M158.61,310.1c-7.5,0-10.33-3.33-8.5-9.99c1.78-6.54,6.42-9.81,13.92-9.81h14.62l-2.41,8.8h-14.62
			c-1.5,0-2.34,0.34-2.52,1.01c-0.22,0.79,0.41,1.19,1.91,1.19h6.75c7.5,0,10.35,3.27,8.57,9.81c-1.83,6.66-6.49,9.99-13.99,9.99
			h-14.62l2.41-8.8h14.62c1.5,0,2.36-0.4,2.59-1.19c0.18-0.67-0.48-1.01-1.98-1.01H158.61z"/>
		<path class="st10" d="M194.89,290.3c4.35,0,7.65,1.5,9.9,4.51c2.25,3.01,2.8,6.64,1.64,10.89c-1.17,4.25-3.7,7.88-7.6,10.89
			s-8.02,4.51-12.37,4.51h-12.37l8.43-30.79H194.89z M185.49,312.3h3.37c1.86,0,3.62-0.64,5.3-1.94c1.67-1.29,2.76-2.84,3.27-4.66
			c0.49-1.82,0.26-3.37-0.71-4.66c-0.97-1.29-2.38-1.94-4.24-1.94h-3.37L185.49,312.3z"/>
		<path class="st10" d="M233.63,290.3l-2.41,8.8h-13.49l-0.61,2.2h11.25l-2.41,8.8h-11.25l-0.61,2.2h13.49l-2.41,8.8h-22.49
			l8.43-30.79H233.63z"/>
		<path class="st10" d="M238.35,312.3l-2.41,8.8h-9l8.43-30.79h15.74c7.5,0,10.24,3.67,8.23,11c-2.01,7.33-6.76,11-14.26,11H238.35z
			 M241.97,299.1l-1.21,4.4h6.75c1.5,0,2.45-0.73,2.86-2.2c0.4-1.47-0.14-2.2-1.64-2.2H241.97z"/>
		<path class="st10" d="M269.59,321.1c-4.35,0-7.65-1.5-9.9-4.51s-2.79-6.64-1.62-10.89c1.15-4.25,3.68-7.88,7.58-10.89
			c3.9-3.01,8.02-4.51,12.37-4.51c4.35,0,7.65,1.5,9.9,4.51s2.8,6.64,1.64,10.89c-1.17,4.25-3.7,7.88-7.6,10.89
			S273.94,321.1,269.59,321.1z M277.29,310.36c1.67-1.29,2.76-2.84,3.27-4.66c0.5-1.82,0.26-3.37-0.71-4.66
			c-0.97-1.29-2.38-1.94-4.24-1.94s-3.63,0.65-5.3,1.94c-1.67,1.29-2.75,2.84-3.25,4.66c-0.51,1.82-0.28,3.37,0.69,4.66
			c0.97,1.29,2.38,1.94,4.24,1.94S275.62,311.66,277.29,310.36z"/>
		<path class="st10" d="M297.25,312.3l-2.41,8.8h-9l8.43-30.79h15.74c7.5,0,10.24,3.67,8.23,11c-1.6,5.87-4.96,9.39-10.08,10.56
			l6.9,9.24h-11.25L297.25,312.3z M300.87,299.1l-1.21,4.4h6.75c1.5,0,2.45-0.73,2.86-2.2c0.41-1.47-0.14-2.2-1.64-2.2H300.87z"/>
		<path class="st10" d="M329.2,321.1h-9l6.03-22h-7.87l2.41-8.8h24.74l-2.41,8.8h-7.87L329.2,321.1z"/>
		<path class="st10" d="M369.14,290.3l-2.41,8.8h-13.49l-0.61,2.2h11.25l-2.41,8.8h-11.25l-0.61,2.2h13.49l-2.41,8.8h-22.49
			l8.43-30.79H369.14z"/>
	</g>
	<rect x="590.73" y="131.77" class="st1" width="313.92" height="138.1"/>
	<text transform="matrix(1.0225 0 0 1 621.0952 225.1749)"><tspan x="0" y="0" class="st2 st8" style="font-family:'Quicksilver-Italic'; letter-spacing:-0.98;">eS</tspan><tspan x="52.74" y="0" class="st8" style="font-family:'Quicksilver-Italic'; letter-spacing:-0.98;">deporte</tspan></text>
	
		<text transform="matrix(0.8021 0 0 1 614.8884 247.4109)" class="st3" style="font-family:'MicrosoftNewTaiLue-Bold'; font-size:12.7298px;">ESCUELA DE ESTUDIOS SUPERIORES DEL DEPORTE</text>
	<g>
		<g>
			<path class="st3" d="M781.68,173.85h6.56c0.88,0,1.59-0.72,1.59-1.59v-20.18c0-0.88-0.72-1.59-1.59-1.59h-6.56
				c-0.88,0-1.59,0.72-1.59,1.59v20.18C780.09,173.13,780.81,173.85,781.68,173.85z"/>
			<path class="st3" d="M793.55,171.12h6.56c0.88,0,1.59-0.72,1.59-1.59v-14.72c0-0.88-0.72-1.59-1.59-1.59h-6.56
				c-0.88,0-1.59,0.72-1.59,1.59v14.72C791.96,170.4,792.68,171.12,793.55,171.12z"/>
			<path class="st3" d="M769.82,176.25h6.56c0.88,0,1.59-0.72,1.59-1.59v-24.97c0-0.88-0.72-1.59-1.59-1.59h-6.56
				c-0.88,0-1.59,0.72-1.59,1.59v24.97C768.22,175.53,768.94,176.25,769.82,176.25z"/>
			<g>
				<rect x="720.05" y="160.58" class="st3" width="52.26" height="3.3"/>
			</g>
		</g>
	</g>
	<g>
		<path class="st3" d="M710.06,173.95h-6.52c-0.88,0-1.59-0.72-1.59-1.59v-20.18c0-0.88,0.72-1.59,1.59-1.59h6.52
			c0.88,0,1.59,0.72,1.59,1.59v20.18C711.66,173.23,710.94,173.95,710.06,173.95z"/>
		<path class="st3" d="M698.25,171.22h-6.52c-0.88,0-1.59-0.72-1.59-1.59V154.9c0-0.88,0.72-1.59,1.59-1.59h6.52
			c0.88,0,1.59,0.72,1.59,1.59v14.72C699.84,170.5,699.13,171.22,698.25,171.22z"/>
		<path class="st3" d="M721.88,176.34h-6.52c-0.88,0-1.59-0.72-1.59-1.59v-24.97c0-0.88,0.72-1.59,1.59-1.59h6.52
			c0.88,0,1.59,0.72,1.59,1.59v24.97C723.47,175.63,722.75,176.34,721.88,176.34z"/>
		<g>
			<rect x="719.4" y="160.67" class="st3" width="52.02" height="3.3"/>
		</g>
	</g>
	<rect x="569.58" y="296.09" class="st1" width="313.92" height="138.1"/>
	<defs>
		<filter id="Adobe_OpacityMaskFilter_1_" filterUnits="userSpaceOnUse" x="609.19" y="500.69" width="76.16" height="38">
			<feColorMatrix  type="matrix" values="1 0 0 0 0  0 1 0 0 0  0 0 1 0 0  0 0 0 1 0"/>
		</filter>
	</defs>
	<mask maskUnits="userSpaceOnUse" x="609.19" y="500.69" width="76.16" height="38" id="SVGID_7_">
		<g class="st11">
			<g>
				<text transform="matrix(0.2517 0 0 1 612.4705 541.2693)"><tspan x="0" y="0" class="st6 st7 st8">SPO</tspan><tspan x="73.83" y="0" class="st6 st7 st8">R</tspan><tspan x="97.35" y="0" class="st6 st7 st8">T</tspan><tspan x="118.61" y="0" class="st6 st7 st8">L</tspan><tspan x="136.99" y="0" class="st6 st7 st8">OGO</tspan></text>
			</g>
		</g>
	</mask>
	<linearGradient id="SVGID_8_" gradientUnits="userSpaceOnUse" x1="647.2715" y1="501.5998" x2="647.2715" y2="558.7018">
		<stop  offset="0" style="stop-color:#83E2EC"/>
		<stop  offset="0.1493" style="stop-color:#79DAE9;stop-opacity:0.8507"/>
		<stop  offset="0.4104" style="stop-color:#5CC5E0;stop-opacity:0.5896"/>
		<stop  offset="0.7499" style="stop-color:#2DA4D1;stop-opacity:0.2501"/>
		<stop  offset="1" style="stop-color:#0688C4;stop-opacity:0"/>
	</linearGradient>
	<path class="st12" d="M685.35,538.7c-24.93-22.21-51.23-22.21-76.16,0c0-12.67,0-25.34,0-38c25.39,0,50.77,0,76.16,0
		C685.35,513.36,685.35,526.03,685.35,538.7z"/>
	<rect x="574.58" y="444.74" width="313.92" height="138.1"/>
	<g>
		<path class="st10" d="M698.16,487.18h-6.52c-0.88,0-1.59-0.72-1.59-1.59V465.4c0-0.88,0.72-1.59,1.59-1.59h6.52
			c0.88,0,1.59,0.72,1.59,1.59v20.18C699.75,486.46,699.04,487.18,698.16,487.18z"/>
		<path class="st10" d="M686.35,484.45h-6.52c-0.88,0-1.59-0.72-1.59-1.59v-14.72c0-0.88,0.72-1.59,1.59-1.59h6.52
			c0.88,0,1.59,0.72,1.59,1.59v14.72C687.94,483.73,687.22,484.45,686.35,484.45z"/>
		<path class="st10" d="M709.98,489.57h-6.52c-0.88,0-1.59-0.72-1.59-1.59v-24.97c0-0.88,0.72-1.59,1.59-1.59h6.52
			c0.88,0,1.59,0.72,1.59,1.59v24.97C711.57,488.86,710.85,489.57,709.98,489.57z"/>
		<g>
			<rect x="707.5" y="473.9" class="st10" width="52.02" height="3.3"/>
		</g>
	</g>
	<g>
		<g>
			<path class="st10" d="M769.78,487.08h6.56c0.88,0,1.59-0.72,1.59-1.59V465.3c0-0.88-0.72-1.59-1.59-1.59h-6.56
				c-0.88,0-1.59,0.72-1.59,1.59v20.18C768.19,486.36,768.91,487.08,769.78,487.08z"/>
			<path class="st10" d="M781.65,484.35h6.56c0.88,0,1.59-0.72,1.59-1.59v-14.72c0-0.88-0.72-1.59-1.59-1.59h-6.56
				c-0.88,0-1.59,0.72-1.59,1.59v14.72C780.06,483.63,780.77,484.35,781.65,484.35z"/>
			<path class="st10" d="M757.91,489.48h6.56c0.88,0,1.59-0.72,1.59-1.59v-24.97c0-0.88-0.72-1.59-1.59-1.59h-6.56
				c-0.88,0-1.59,0.72-1.59,1.59v24.97C756.32,488.76,757.04,489.48,757.91,489.48z"/>
			<g>
				<rect x="708.15" y="473.81" class="st10" width="52.26" height="3.3"/>
			</g>
		</g>
	</g>
	
		<text transform="matrix(0.8021 0 0 1 600.9856 560.6404)" class="st10" style="font-family:'MicrosoftNewTaiLue-Bold'; font-size:12.7298px;">ESCUELA DE ESTUDIOS SUPERIORES DEL DEPORTE</text>
	<text transform="matrix(1.0225 0 0 1 609.1923 538.4043)"><tspan x="0" y="0" class="st2 st8" style="font-family:'Quicksilver-Italic'; letter-spacing:-0.98;">eS</tspan><tspan x="52.74" y="0" class="st10 st8" style="font-family:'Quicksilver-Italic'; letter-spacing:-0.98;">deporte</tspan></text>
</g>
<g id="DESIGNED_BY_FREEPIK">
</g>
</svg>
