<svg width="14" height="14" viewBox="0 0 14 14" fill="none" xmlns="http://www.w3.org/2000/svg">
<path d="M7 3.5C6.86193 3.5 6.75 3.38807 6.75 3.25C6.75 3.11193 6.86193 3 7 3" stroke="white" stroke-linecap="round" stroke-linejoin="round"/>
<path d="M7 3.5C7.13807 3.5 7.25 3.38807 7.25 3.25C7.25 3.11193 7.13807 3 7 3" stroke="white" stroke-linecap="round" stroke-linejoin="round"/>
<path d="M10.5 0.5H3.5C2.94772 0.5 2.5 0.947715 2.5 1.5V12.5C2.5 13.0523 2.94772 13.5 3.5 13.5H10.5C11.0523 13.5 11.5 13.0523 11.5 12.5V1.5C11.5 0.947715 11.0523 0.5 10.5 0.5Z" stroke="white" stroke-linecap="round" stroke-linejoin="round"/>
</svg>
