<svg width="18" height="18" viewBox="0 0 18 18" fill="none" xmlns="http://www.w3.org/2000/svg">
<g clip-path="url(#clip0_45_269)">
<path d="M17.6421 11.0965C17.4034 11.3352 17.1134 11.4545 16.7726 11.4545H11.4544V16.7728C11.4544 17.1136 11.335 17.4035 11.0964 17.6421C10.8578 17.8806 10.5682 18 10.2269 18H7.77262C7.43178 18 7.14199 17.8808 6.90333 17.6421C6.66467 17.4034 6.54538 17.1136 6.54538 16.7728V11.4544H1.2272C0.886401 11.4544 0.596561 11.3352 0.357901 11.0965C0.119241 10.8578 0 10.5683 0 10.2272V7.77262C0 7.43151 0.119196 7.1419 0.357856 6.90346C0.596516 6.66471 0.886357 6.54552 1.22715 6.54552H6.54534V1.22706C6.54534 0.886267 6.66462 0.596203 6.90328 0.357632C7.14194 0.119196 7.43174 0 7.77258 0H10.2271C10.5681 0 10.8578 0.119196 11.0965 0.357632C11.3352 0.596336 11.4544 0.886267 11.4544 1.22706V6.54552H16.7726C17.1137 6.54552 17.4034 6.66471 17.642 6.90346C17.8806 7.1419 18 7.43151 18 7.77262V10.2272C17.9999 10.5683 17.8808 10.858 17.6421 11.0965Z" fill="black"/>
</g>
<defs>
<clipPath id="clip0_45_269">
<rect width="18" height="18" fill="white" transform="matrix(1 0 0 -1 0 18)"/>
</clipPath>
</defs>
</svg>
